<svg xmlns="http://www.w3.org/2000/svg" viewBox="0 0 512 512" style="height: 512px; width: 512px;"><defs><filter id="shadow-1" height="300%" width="300%" x="-100%" y="-100%"><feFlood flood-color="rgba(0, 0, 0, 1)" result="flood"></feFlood><feComposite in="flood" in2="SourceGraphic" operator="atop" result="composite"></feComposite><feGaussianBlur in="composite" stdDeviation="15" result="blur"></feGaussianBlur><feOffset dx="0" dy="0" result="offset"></feOffset><feComposite in="SourceGraphic" in2="offset" operator="over"></feComposite></filter></defs><g class="" transform="translate(0,0)" style="touch-action: none;"><path d="M19.09 16.96V170.7C73.51 193.5 202.7 200 259.8 189.4c-18.1 105.6 34 177.3 31.1 226.5-2 33.3-22.9 39-13.5 69.3 4.9 15.6 193 5.1 201.1 4.9 7.7-.3 5.4-19.2-13.3-27.2-35.2-15.1-80.2-10.7-110.1-47-9.7-14.6 6.9-180.3 10-241.4.8-15.7 4.7-78.91-60-100.5C225 47.24 123 27.32 19.09 16.96z" fill="#fff" fill-opacity="1" filter="url(#shadow-1)"></path></g></svg>